ply
format ascii 1.0
comment Created by Blender 3.2.0 - www.blender.org
element vertex 173
property float x
property float y
property float z
element face 342
property list uchar uint vertex_indices
end_header
0.617158 0.258010 -0.064932
0.560438 0.320642 -0.151509
0.559039 0.326957 0.113243
-0.697402 1.368106 -0.534086
-0.699335 1.187463 -0.133807
-0.611987 1.218639 -0.380474
-0.850459 0.739120 0.086406
-0.812505 0.750080 -0.181331
-0.911844 0.592273 0.022032
-0.719883 0.982761 0.350711
-0.857983 1.091990 0.243301
-0.826796 0.919641 0.370179
-0.932795 0.777436 -0.024922
-0.492514 1.166905 -0.216439
-0.425088 1.349713 -0.239451
-0.154922 1.463798 -0.419195
-0.731635 0.766724 0.365226
-0.280700 0.899570 -0.039650
0.118406 0.945485 0.045194
0.015899 0.925293 -0.199539
-0.796100 1.382576 -0.617211
-0.566570 1.161800 0.170577
-0.436181 0.920185 0.012818
-0.487696 0.917857 -0.186858
-0.490638 1.049186 -0.120083
0.490205 0.096598 -0.185084
-0.625502 0.856761 0.312134
0.127426 0.210499 0.365879
-0.002889 0.272121 0.413749
-0.010628 0.158369 0.392898
0.159328 0.104450 0.286779
-0.166982 0.126293 0.342439
0.063596 0.000000 -0.382541
-0.356831 0.000000 -0.457323
-0.174424 0.071965 -0.431673
0.569112 0.115309 0.050676
0.336409 0.000000 0.046237
0.238023 0.103382 -0.352126
0.219676 0.000000 -0.172079
0.207547 0.000000 -0.198988
0.188516 0.815999 0.198840
-0.094024 0.900615 0.161102
-0.024589 0.750307 0.280402
-0.099316 0.647572 0.285906
-0.495758 0.640120 0.278235
-0.722879 0.702891 0.220409
-0.740609 0.557508 0.260969
-0.509968 0.791312 0.181624
-0.544217 0.524290 0.310815
-0.213246 1.263650 -0.316382
-0.796246 0.364692 -0.176405
-0.622034 0.390550 -0.347272
-0.568678 0.226764 -0.181213
0.226210 0.630064 0.297223
0.068830 0.619422 0.348531
-0.661536 0.423556 0.277640
-0.438619 0.384690 0.277816
-0.047228 0.392916 0.435463
0.093712 0.483941 0.408257
-0.877510 0.461279 0.063892
-0.871336 0.484091 -0.147425
-0.392201 0.000000 0.284000
-0.481407 0.134545 0.229303
-0.566605 0.000000 0.337109
0.425313 0.089774 0.164352
0.327891 0.000000 0.065626
0.332704 0.000000 0.069079
-0.080205 1.364257 -0.451409
-0.132141 1.242367 -0.254246
-0.317084 0.825849 0.147145
-0.393398 0.585095 0.281422
-0.311816 0.446683 0.266176
-0.390497 0.000000 0.283973
-0.276025 0.188790 0.203523
-0.251670 0.632046 0.292799
-0.652772 0.074884 0.172570
-0.612713 0.000000 0.042605
-0.637833 0.000000 0.072763
0.459839 0.352244 0.075242
0.391523 0.209688 0.178615
-0.161880 0.576072 0.398342
-0.698860 1.170048 -0.664818
-0.609579 1.315205 -0.767434
-0.658422 1.150138 -0.588688
-0.164978 0.271547 0.379645
-0.233491 0.458692 0.410791
0.443498 0.545996 0.086504
-0.621338 1.002795 0.203540
0.182946 0.000000 0.271775
0.180099 0.000000 0.273146
-0.264576 1.457976 -0.222704
-0.522905 1.181226 -0.030149
-0.434046 1.197447 -0.084742
-0.514954 0.986453 0.141580
-0.946998 0.852971 0.111003
-0.904642 1.003345 0.024615
-0.887329 0.911406 -0.161424
0.248924 0.444481 0.340522
0.449534 0.617347 -0.115526
0.354046 0.528365 0.247253
-0.158968 1.425020 -0.355961
-0.190436 0.000000 0.368085
0.221583 0.230532 0.312285
-0.581866 0.122781 -0.086219
-0.555476 0.192609 -0.048788
-0.238843 0.000000 0.376891
-0.268160 0.076855 0.389819
-0.252338 0.000000 0.383152
0.330154 0.771673 0.134219
-0.512750 0.258704 0.181561
-0.508555 0.098930 0.025726
-0.637464 1.056789 -0.227122
0.304041 0.373317 -0.362600
0.365965 0.500671 -0.327422
0.463436 0.353927 -0.114265
-0.347978 0.075233 -0.448971
-0.268072 0.148137 -0.401417
0.155158 0.000000 -0.364632
0.330475 0.702697 -0.265697
-0.923637 1.126387 0.027297
-0.757761 1.061290 -0.219887
-0.772191 1.151418 -0.203498
0.178850 0.618851 -0.384938
0.046997 0.571759 -0.480133
0.210184 0.180380 -0.421379
0.374775 0.190672 -0.235111
-0.622352 1.167820 -0.138500
-0.626534 0.000000 0.027457
0.294154 0.836760 -0.145704
-0.772365 0.352776 0.142968
-0.478681 0.318383 -0.304973
-0.750712 1.196289 0.101760
-0.671394 1.451636 -0.749488
-0.821072 0.547044 -0.254131
-0.572056 0.000000 0.332844
-0.515234 0.190437 0.035525
-0.574360 0.222211 0.050181
-0.340990 0.431602 -0.432330
-0.388623 0.512185 -0.382110
-0.225914 0.607301 -0.402192
-0.322619 0.157217 -0.260778
-0.389197 0.000000 0.286352
-0.929571 0.779577 0.275424
-0.665980 0.000000 0.227220
-0.417007 0.688099 -0.358176
-0.244079 0.725478 -0.363564
-0.259794 0.535740 -0.516504
-0.183649 0.283954 -0.535045
-0.736552 0.035959 -0.094389
-0.509120 0.000000 -0.271690
-0.679178 0.000000 -0.208155
-0.540810 0.112690 -0.214191
-0.729324 1.297859 -0.589926
-0.265433 0.845088 -0.222251
-0.750747 1.127455 -0.419508
-0.411648 0.000000 -0.436179
-0.405957 0.000000 -0.462311
0.063429 0.805453 -0.334548
0.047676 0.641640 -0.376341
-0.134108 0.473247 -0.550539
-0.436486 0.872978 -0.264211
-0.569997 0.657708 -0.359387
-0.635540 0.824960 -0.249720
0.257087 0.000000 -0.168390
-0.468799 0.000000 -0.283802
0.119574 0.335903 -0.472590
0.145311 0.000000 -0.373271
0.008452 0.135399 -0.461376
-0.723833 0.000000 -0.157270
-0.697587 0.238682 0.000153
-0.670613 0.000000 -0.004252
-0.328959 0.000000 0.328959
0.339071 0.000000 0.061447
3 0 1 2
3 3 4 5
3 6 7 8
3 9 10 11
3 7 6 12
3 13 14 15
3 16 9 11
3 17 18 19
3 20 4 3
3 9 21 10
3 22 23 24
3 0 25 1
3 16 26 9
3 27 28 29
3 30 29 31
3 32 33 34
3 35 36 25
3 37 38 39
3 40 41 42
3 43 40 42
3 44 45 46
3 44 47 45
3 48 44 46
3 18 17 41
3 13 15 49
3 50 51 52
3 53 40 54
3 55 56 48
3 57 58 54
3 59 8 60
3 45 47 26
3 28 58 57
3 48 56 44
3 61 62 63
3 64 65 66
3 49 67 68
3 69 47 44
3 69 22 47
3 56 70 44
3 70 69 44
3 71 56 62
3 72 62 61
3 73 71 62
3 56 71 70
3 27 58 28
3 74 69 70
3 71 74 70
3 75 76 77
3 58 53 54
3 41 69 74
3 69 41 17
3 2 78 79
3 2 79 64
3 42 74 43
3 41 74 42
3 57 54 80
3 81 82 83
3 84 57 85
3 85 57 80
3 54 40 43
3 31 29 84
3 28 84 29
3 84 28 57
3 79 78 86
3 26 16 45
3 26 87 9
3 87 21 9
3 25 0 35
3 88 30 89
3 90 91 92
3 93 87 26
3 94 95 96
3 58 27 97
3 93 21 87
3 88 65 79
3 47 93 26
3 78 98 86
3 64 35 2
3 97 99 53
3 47 22 93
3 67 49 15
3 100 92 68
3 100 90 92
3 31 101 30
3 30 102 27
3 103 104 52
3 24 92 91
3 27 102 97
3 105 106 107
3 79 99 97
3 99 86 108
3 79 97 102
3 86 99 79
3 99 108 53
3 24 68 92
3 24 93 22
3 30 79 102
3 27 29 30
3 62 109 110
3 83 5 111
3 112 113 114
3 34 115 116
3 37 39 117
3 113 118 98
3 12 94 96
3 95 119 120
3 119 121 120
3 83 82 5
3 122 113 123
3 37 124 125
3 113 98 114
3 111 5 126
3 95 10 119
3 95 120 96
3 124 112 125
3 125 112 114
3 110 127 76
3 19 18 128
3 68 67 100
3 98 108 86
3 24 21 93
3 114 98 78
3 35 0 2
3 21 24 91
3 129 59 50
3 98 118 128
3 78 2 1
3 114 78 1
3 52 51 130
3 131 10 21
3 121 131 4
3 126 131 91
3 17 22 69
3 5 4 126
3 131 21 91
3 131 119 10
3 4 131 126
3 98 128 108
3 67 15 100
3 121 119 131
3 82 132 3
3 128 18 108
3 15 90 100
3 43 80 54
3 13 49 24
3 18 40 108
3 5 82 3
3 23 22 17
3 60 8 133
3 18 41 40
3 132 20 3
3 62 134 63
3 135 109 136
3 85 74 71
3 109 62 56
3 46 55 48
3 31 84 73
3 135 110 109
3 121 4 20
3 73 106 31
3 85 80 74
3 74 80 43
3 137 138 139
3 140 130 138
3 106 72 141
3 142 16 11
3 73 85 71
3 110 135 104
3 73 84 85
3 134 75 143
3 46 45 6
3 59 46 8
3 46 6 8
3 138 144 145
3 142 11 10
3 139 138 145
3 137 146 147
3 126 91 90
3 148 127 103
3 55 46 59
3 103 110 104
3 149 150 151
3 132 152 20
3 81 152 132
3 94 10 95
3 153 17 19
3 116 137 147
3 81 121 152
3 75 62 110
3 139 146 137
3 121 20 152
3 121 81 154
3 115 140 116
3 116 140 138
3 118 113 122
3 155 115 156
3 120 121 154
3 14 90 15
3 126 90 14
3 24 49 68
3 157 145 19
3 94 142 10
3 103 151 148
3 50 59 60
3 103 52 151
3 8 7 133
3 7 12 96
3 126 24 111
3 118 157 128
3 158 123 146
3 123 159 146
3 118 158 157
3 160 161 162
3 23 160 162
3 153 19 145
3 158 122 123
3 118 122 158
3 24 23 111
3 144 161 160
3 139 158 146
3 160 23 17
3 40 53 108
3 19 128 157
3 153 145 160
3 145 144 160
3 17 153 160
3 161 7 162
3 96 120 162
3 7 96 162
3 1 125 114
3 125 1 25
3 23 162 111
3 130 51 138
3 132 82 81
3 133 7 161
3 133 161 51
3 163 125 25
3 151 130 140
3 151 164 149
3 58 97 53
3 124 165 112
3 113 112 165
3 164 140 155
3 37 166 124
3 165 123 113
3 89 30 101
3 133 50 60
3 124 167 165
3 124 34 167
3 124 32 34
3 167 147 165
3 159 123 165
3 13 126 14
3 165 147 159
3 126 13 24
3 158 139 157
3 34 147 167
3 138 161 144
3 148 150 168
3 33 115 34
3 162 120 111
3 151 52 130
3 116 147 34
3 50 133 51
3 146 159 147
3 51 161 138
3 116 138 137
3 111 81 83
3 111 154 81
3 12 6 94
3 6 142 94
3 6 45 142
3 25 36 163
3 50 169 129
3 16 142 45
3 55 59 129
3 50 52 169
3 120 154 111
3 170 148 168
3 104 169 52
3 106 171 107
3 145 157 139
3 169 109 129
3 104 136 169
3 136 109 169
3 109 55 129
3 143 75 77
3 109 56 55
3 64 172 35
3 136 104 135
3 32 164 33
3 35 172 36
3 37 125 38
3 64 79 65
3 72 73 62
3 75 110 76
3 88 79 30
3 31 105 101
3 105 31 106
3 110 103 127
3 62 75 134
3 106 73 72
3 148 170 127
3 155 140 115
3 163 38 125
3 151 140 164
3 37 117 166
3 124 166 32
3 148 151 150
3 33 156 115
3 106 141 171
3 64 66 172
3 163 36 38
3 36 172 65
3 172 66 65
3 65 88 89
3 89 101 38
3 101 105 171
3 72 101 171
3 105 107 171
3 171 141 72
3 61 63 134
3 61 134 143
3 101 72 38
3 72 61 76
3 61 143 77
3 77 76 61
3 127 170 150
3 170 168 150
3 76 127 149
3 150 149 127
3 149 164 76
3 72 76 164
3 65 89 38
3 36 65 38
3 72 164 39
3 38 72 39
3 155 156 33
3 164 155 33
3 39 164 32
3 166 117 32
3 117 39 32
